<svg width="120" height="120" viewBox="0 0 120 120" fill="none" xmlns="http://www.w3.org/2000/svg">
  <rect x="6" y="6" width="108" height="108" rx="34" fill="#F5F3EF"/>
  <rect x="6" y="6" width="108" height="108" rx="34" stroke="#2F4F4F" stroke-opacity="0.12" stroke-width="2"/>
  <path d="M60 24C53.8 34.2 48.5 43.2 48.5 53.4C48.5 64.6 57.1 73.2 68.3 73.2C78.5 73.2 87 65.6 87 55.9C87 47.6 82.5 41.1 74.3 34.6C74 45.5 66.9 52.3 58.5 56C61.7 49.7 62.6 43.4 60 24Z" fill="#9CAF9A"/>
  <path d="M38 79.5C44.4 66.7 58 61.6 68.6 61.6C79.2 61.6 90.1 66.2 96.8 79.5" stroke="#D8A48F" stroke-width="5.2" stroke-linecap="round"/>
  <path d="M26.5 82.8H93.5" stroke="#2F4F4F" stroke-width="2.6" stroke-linecap="round" stroke-opacity="0.55"/>
  <circle cx="58.5" cy="53.2" r="4.1" fill="#2F4F4F" fill-opacity="0.16"/>
</svg>
